# xmcd
#
# Track frame offsets: 
#        150
#        12454
#        36419
#        47960
#        86296
#        98988
#        128834
#        154704
#        187961
#        218073
#
# Disc length: 3390 seconds
#
# Revision: 0
# Processed by: cddbd v1.5.2PL0 Copyright (c) Steve Scherf et al.
# Submitted via: ExactAudioCopy v0.99pb5
#
DISCID=800d3c0a
DTITLE=Tadeusz Nalepa promotion After Blues - Live
DYEAR=1985
DGENRE=Blues
TTITLE0=01.Kiedy opuszczam miasto
TTITLE1=02.popatrz mamo
TTITLE2=03.Tak jak powiedzia³a mama
TTITLE3=04.Blues dla Ryska
TTITLE4=05.Hey wooman
TTITLE5=06.Od rana czuje bluesa
TTITLE6=07.Rzeka dziecinstwa
TTITLE7=08.Co sie stalo kwiatom
TTITLE8=09.Jedz ostroznie nie popedzaj kol
TTITLE9=10.Modlitwa
EXTD=
EXTT0=
EXTT1=
EXTT2=
EXTT3=
EXTT4=
EXTT5=
EXTT6=
EXTT7=
EXTT8=
EXTT9=
PLAYORDER=
